HIERARCHY
ROOT Hips
{
  OFFSET 0.000000 0.000000 0.000000
  CHANNELS 6 Xposition Yposition Zposition Xrotation Yrotation Zrotation
  JOINT Spine
  {
    OFFSET 0.762862 -23.197727 -6.058858
    CHANNELS 3 Xrotation Yrotation Zrotation
    JOINT Chest
    {
      OFFSET 0.762862 -23.197727 -6.058858
      CHANNELS 3 Xrotation Yrotation Zrotation
      JOINT Neck
      {
        OFFSET -0.540149 -18.459645 -7.594813
        CHANNELS 3 Xrotation Yrotation Zrotation
        JOINT Head
        {
          OFFSET 1.486077 2.397645 -12.425186
          CHANNELS 3 Xrotation Yrotation Zrotation
          End Site
          {
            OFFSET 0.0 5.0 2.0
          }
        }
      }
      JOINT LeftShoulder
      {
        OFFSET 17.595006 -0.044015 0.996102
        CHANNELS 3 Xrotation Yrotation Zrotation
        JOINT LeftArm
        {
          OFFSET 3.473531 23.049457 3.982832
          CHANNELS 3 Xrotation Yrotation Zrotation
          JOINT LeftForeArm
          {
            OFFSET 3.218371 22.980839 -10.241008
            CHANNELS 3 Xrotation Yrotation Zrotation
            JOINT LeftHand
            {
              OFFSET -0.425643 6.585190 -3.413291
              CHANNELS 3 Xrotation Yrotation Zrotation
              End Site
              {
                OFFSET -3.0 0.0 2.0
              }
            }
          }
        }
      }
      JOINT RightShoulder
      {
        OFFSET -17.595006 0.044015 -0.996102
        CHANNELS 3 Xrotation Yrotation Zrotation
        JOINT RightArm
        {
          OFFSET -5.553442 24.118242 6.751946
          CHANNELS 3 Xrotation Yrotation Zrotation
          JOINT RightForeArm
          {
            OFFSET -3.099014 24.977112 -8.059516
            CHANNELS 3 Xrotation Yrotation Zrotation
            JOINT RightHand
            {
              OFFSET 0.761311 6.389460 -3.213455
              CHANNELS 3 Xrotation Yrotation Zrotation
              End Site
              {
                OFFSET 3.0 0.0 2.0
              }
            }
          }
        }
      }
    }
  }
  JOINT LeftUpLeg
  {
    OFFSET 11.990773 0.614304 0.788698
    CHANNELS 3 Xrotation Yrotation Zrotation
    JOINT LeftLeg
    {
      OFFSET -5.144974 41.347031 2.000000
      CHANNELS 3 Xrotation Yrotation Zrotation
      JOINT LeftFoot
      {
        OFFSET 1.348836 29.942834 21.947497
        CHANNELS 3 Xrotation Yrotation Zrotation
        JOINT LeftToeBase
        {
          OFFSET 3.498804 11.595297 -10.821160
          CHANNELS 3 Xrotation Yrotation Zrotation
          End Site
          {
            OFFSET 0.0 -1.0 3.0
          }
        }
      }
    }
  }
  JOINT RightUpLeg
  {
    OFFSET -11.990773 -0.614304 -0.788698
    CHANNELS 3 Xrotation Yrotation Zrotation
    JOINT RightLeg
    {
      OFFSET 0.284998 37.357294 5.081156
      CHANNELS 3 Xrotation Yrotation Zrotation
      JOINT RightFoot
      {
        OFFSET 4.085786 23.068225 32.169547
        CHANNELS 3 Xrotation Yrotation Zrotation
        JOINT RightToeBase
        {
          OFFSET 1.209955 10.990363 -7.247832
          CHANNELS 3 Xrotation Yrotation Zrotation
          End Site
          {
            OFFSET 0.0 -1.0 3.0
          }
        }
      }
    }
  }
}
MOTION
Frames: 12
Frame Time: 0.041667
0.000000 0.000000 0.000000 0.000000 0.000000 0.000000 0.000000 0.000000 0.000000 0.000000 0.000000 0.000000 0.000000 0.000000 0.000000 0.000000 0.000000 0.000000 0.000000 0.000000 0.000000 0.000000 0.000000 0.000000 0.000000 0.000000 0.000000 0.000000 0.000000 0.000000 0.000000 0.000000 0.000000 0.000000 0.000000 0.000000 0.000000 0.000000 0.000000 0.000000 0.000000 0.000000 -3.451186 -0.429177 0.012930 0.000000 0.000000 0.000000 83.274037 -16.681721 -14.851942 0.000000 0.000000 0.000000 0.000000 0.000000 0.000000 0.000000 0.000000 0.000000 66.364063 -5.759197 -3.767950 0.000000 0.000000 0.000000
0.000000 0.000000 0.000000 -0.000029 -0.001398 0.001536 -0.125067 0.143873 -0.569037 0.025287 -0.092583 -0.444440 0.009928 -0.210721 -0.039502 0.000000 0.000000 0.000000 0.389801 0.168129 -1.288609 1.834125 -0.009213 0.576337 1.104308 1.772525 3.367496 0.000000 0.000000 0.000000 -0.668080 -0.097726 -0.204245 0.468447 -0.068067 -0.396279 0.083380 -0.107954 -0.195301 0.000000 0.000000 0.000000 -2.558984 -0.326762 0.336379 -1.011644 0.219781 -0.242561 83.741156 -16.702636 -13.377209 0.000000 0.000000 0.000000 3.044653 -0.027164 0.023573 -7.238392 0.479264 0.572852 76.491168 -6.718765 2.064198 0.000000 0.000000 0.000000
0.000000 0.000000 0.000000 0.010182 -0.016884 -0.141327 -0.665486 0.148310 -0.667213 0.079808 -0.533477 -1.324712 -0.050025 -1.022691 -0.203086 0.000000 0.000000 0.000000 -0.353667 0.398119 -2.039181 1.769816 0.157269 0.943861 1.357004 2.116888 4.040364 0.000000 0.000000 0.000000 -1.862081 -0.326819 -0.382031 0.892632 0.002424 -0.344014 0.430561 -0.093762 -0.085431 0.000000 0.000000 0.000000 1.175368 0.118820 0.468023 -3.247928 0.369520 -0.327688 85.917636 -16.787388 -13.950462 0.000000 0.000000 0.000000 3.598154 0.154944 -1.085545 -17.255199 0.631165 1.863840 83.507517 -7.692136 4.060667 0.000000 0.000000 0.000000
0.000000 0.000000 0.000000 0.064438 -0.873623 -0.268466 -1.763310 0.100226 -0.645255 0.153632 -2.683946 -2.005790 -0.513387 -1.621756 -0.367405 0.000000 0.000000 0.000000 -0.753931 0.597287 -2.927202 1.535653 0.450922 1.545008 0.863491 2.296552 4.413965 0.000000 0.000000 0.000000 -3.170799 -0.415611 -1.238654 0.817294 0.214077 0.358891 0.440901 0.122063 0.350220 0.000000 0.000000 0.000000 6.071735 0.655834 0.999590 -0.974158 -0.056451 0.138974 86.030915 -16.817290 -12.851366 0.000000 0.000000 0.000000 1.980797 0.542918 -3.631405 -23.428423 0.369800 3.143988 84.940193 -7.544366 2.158560 0.000000 0.000000 0.000000
0.000000 0.000000 0.000000 0.110239 -1.575052 -0.372514 -2.286284 0.050275 -0.521180 0.211487 -3.748016 -2.476551 -0.969162 -2.279840 -0.537020 0.000000 0.000000 0.000000 -0.924817 0.755369 -3.767394 0.378840 0.855209 2.051198 -0.034134 2.772441 5.362478 0.000000 0.000000 0.000000 -4.169853 -0.540173 -1.711021 0.340024 0.294600 0.791167 0.392607 0.363676 0.822346 0.000000 0.000000 0.000000 6.693520 0.729377 0.989613 -2.932550 0.004036 0.180977 86.882093 -16.841718 -13.428303 0.000000 0.000000 0.000000 -0.694202 0.677356 -5.174037 -27.245527 0.243584 3.985823 86.675713 -7.557449 1.283232 0.000000 0.000000 0.000000
0.000000 0.000000 0.000000 0.119551 -1.598991 -0.472993 -2.152841 0.050750 -0.502473 0.243644 -3.794058 -2.825672 -1.306635 -2.297947 -0.573671 0.000000 0.000000 0.000000 -2.114367 0.980978 -4.345867 -0.692675 1.178420 2.379349 -0.584408 3.104078 6.002825 0.000000 0.000000 0.000000 -4.558012 -0.643159 -1.673420 0.395847 0.290983 0.759438 0.822333 0.228250 0.659394 0.000000 0.000000 0.000000 5.711094 0.607494 1.063648 -3.529929 -0.046173 0.293768 90.676391 -16.976273 -13.975285 0.000000 0.000000 0.000000 -1.982729 0.681061 -5.620922 -28.322238 0.149568 4.305249 86.842427 -7.598951 1.429765 0.000000 0.000000 0.000000
0.000000 0.000000 0.000000 0.127238 -1.611493 -0.560616 -2.260287 0.039817 -0.473611 0.256794 -3.203475 -3.135283 -1.638406 -2.525671 -0.647213 0.000000 0.000000 0.000000 -1.940089 1.102912 -5.266430 -1.657215 1.616173 2.972386 -1.506120 3.866473 7.431491 0.000000 0.000000 0.000000 -5.001362 -0.768988 -1.592933 0.242525 0.291035 0.815435 0.954173 0.200374 0.636409 0.000000 0.000000 0.000000 5.646201 0.601175 1.051485 -4.285028 -0.008499 0.290192 92.149687 -17.007586 -14.344899 0.000000 0.000000 0.000000 -2.726407 0.650750 -5.630055 -29.152105 0.190889 4.421665 86.747596 -7.561447 1.269368 0.000000 0.000000 0.000000
0.000000 0.000000 0.000000 0.131312 -1.607159 -0.614706 -2.440972 0.025205 -0.440331 0.261383 -2.492559 -3.418264 -2.347872 -2.609101 -0.730023 0.000000 0.000000 0.000000 -1.756571 1.103706 -5.392540 -3.812995 2.824687 4.660133 -2.795607 5.839298 10.998378 0.000000 0.000000 0.000000 -4.617240 -0.698337 -1.500582 0.138212 0.244619 0.708469 0.964680 0.146437 0.529653 0.000000 0.000000 0.000000 5.684828 0.608169 1.026023 -4.703558 0.015358 0.283536 92.329670 -17.032619 -14.102236 0.000000 0.000000 0.000000 -2.614328 0.612195 -5.247063 -28.280255 -0.295820 4.820055 86.180068 -7.561831 1.564375 0.000000 0.000000 0.000000
0.000000 0.000000 0.000000 0.150948 -1.826225 -0.703561 -2.775285 0.014082 -0.445022 0.290962 -2.393428 -3.834822 -3.189913 -2.947621 -0.866437 0.000000 0.000000 0.000000 -2.380769 1.190903 -5.554916 -5.700419 4.279639 6.758643 -4.125131 7.434352 13.699098 0.000000 0.000000 0.000000 -4.991774 -0.779271 -1.538836 -0.131304 0.149595 0.512359 0.994649 0.068992 0.379932 0.000000 0.000000 0.000000 6.806348 0.706264 1.323057 -6.309634 -0.337624 0.937718 92.137503 -16.966411 -14.893636 0.000000 0.000000 0.000000 -3.354216 0.582192 -5.234735 -29.042085 -0.330555 5.020243 87.836718 -7.603658 0.972972 0.000000 0.000000 0.000000
0.000000 0.000000 0.000000 0.164448 -1.859244 -0.845111 -3.823593 -0.030413 -0.417515 0.281881 -1.067198 -4.316835 -4.284066 -2.819598 -0.947267 0.000000 0.000000 0.000000 -3.593700 1.418716 -6.333092 -7.331603 5.498844 8.346121 -5.236831 9.053572 16.341039 0.000000 0.000000 0.000000 -4.795986 -0.703716 -1.660445 -1.452506 -0.132798 0.142992 0.194046 -0.007284 0.031583 0.000000 0.000000 0.000000 6.547562 0.673926 1.350394 -6.603112 -0.510504 1.228497 93.754240 -16.886880 -16.393547 0.000000 0.000000 0.000000 -3.683152 0.578668 -5.323406 -28.961215 -0.444328 5.138268 88.270556 -7.609078 0.803808 0.000000 0.000000 0.000000
0.000000 0.000000 0.000000 0.189611 -1.942221 -1.090529 -4.308006 -0.040357 -0.451702 0.268393 -0.395155 -4.484143 -4.516967 -2.686200 -0.948421 0.000000 0.000000 0.000000 -4.304396 1.620067 -7.366563 -10.706814 6.815862 9.173914 -6.917494 9.992108 17.573422 0.000000 0.000000 0.000000 -4.227991 -0.521438 -1.847615 -1.448243 -0.258289 -0.231044 0.214293 -0.147971 -0.244710 0.000000 0.000000 0.000000 6.474136 0.667368 1.333645 -6.700777 -0.530067 1.267295 94.510334 -17.002677 -15.321809 0.000000 0.000000 0.000000 -3.718474 0.655305 -6.078973 -27.201348 -0.584108 4.931136 87.237364 -7.142521 -1.250285 0.000000 0.000000 0.000000
0.000000 0.000000 0.000000 0.218026 -2.030328 -1.366721 -4.492016 -0.005323 -0.641631 0.263709 0.004401 -4.658994 -4.528705 -2.342491 -0.896705 0.000000 0.000000 0.000000 -4.907890 1.735784 -7.889226 -12.818690 7.743361 9.781942 -7.316290 10.957274 19.090346 0.000000 0.000000 0.000000 -3.789417 -0.269028 -2.440848 -1.122712 -0.291854 -0.455623 0.372237 -0.220413 -0.353228 0.000000 0.000000 0.000000 6.287207 0.648777 1.308327 -3.721604 -0.695736 1.255747 90.932590 -17.081645 -12.491870 0.000000 0.000000 0.000000 -3.506124 0.741033 -6.800805 -26.331025 -0.280230 4.406884 87.002054 -6.987729 -2.015744 0.000000 0.000000 0.000000
